<?xml version="1.0" encoding="utf-8"?><svg version="1.1" id="Layer_1" xmlns="http://www.w3.org/2000/svg" xmlns:xlink="http://www.w3.org/1999/xlink" x="0px" y="0px" viewBox="0 0 122.88 59.13" style="enable-background:new 0 0 122.88 59.13" xml:space="preserve"><style type="text/css"><![CDATA[
	.st0{fill-rule:evenodd;clip-rule:evenodd;}
]]></style><g><path class="st0" d="M74.19,17.43c0.65,0.19,1.13,0.57,1.43,1.15c0.46,0.93,0.29,2.3-0.58,4.26l0,0c-0.02,0.04-0.04,0.08-0.06,0.1 l-3.07,5.06c-1.19,1.96-2.4,3.93-4.02,5.44c-1.69,1.59-3.78,2.64-6.63,2.63c-2.66-0.01-4.67-1.03-6.31-2.53 c-1.58-1.45-2.78-3.29-3.92-5.11l-2.69-4.29c-1-1.49-1.52-2.87-1.56-4c-0.02-0.55,0.08-1.05,0.29-1.48 c0.22-0.47,0.54-0.86,0.99-1.15c0.22-0.15,0.47-0.28,0.74-0.37c-0.16-2.29-0.22-5.13-0.11-7.51c0.06-0.58,0.17-1.16,0.33-1.74 c0.68-2.46,2.42-4.44,4.55-5.8c0.75-0.48,1.58-0.87,2.45-1.19c5.17-1.87,12.04-0.85,15.71,3.13c1.49,1.62,2.43,3.77,2.63,6.6 L74.19,17.43L74.19,17.43L74.19,17.43z M106.12,43.78c-2.2,6.45-11.4,6.71-13.47,0c-0.49,0.44-1.17,0.81-1.97,1.13 c1.79,3.78,2.04,8.82,2.65,12.95h5.86h21.11c1.62-0.12,2.44-0.95,2.58-2.4c0-2.94-0.23-5.2-4.45-7.56 C115.76,46.41,108.55,45.98,106.12,43.78L106.12,43.78L106.12,43.78z M89.39,27.22c-0.5,0.15-0.88,0.44-1.1,0.89 c-0.35,0.71-0.22,1.78,0.45,3.29l0,0c0.01,0.03,0.02,0.05,0.04,0.09l2.37,3.9c0.92,1.51,1.85,3.03,3.1,4.2 c1.3,1.23,2.92,2.04,5.12,2.03c2.06,0,3.61-0.79,4.88-1.95c1.22-1.12,2.15-2.54,3.03-3.95l2.08-3.31c0.78-1.16,1.17-2.21,1.21-3.09 c0.01-0.43-0.05-0.81-0.22-1.14c-0.16-0.36-0.42-0.66-0.77-0.89c-0.16-0.11-0.36-0.21-0.57-0.28c0.13-1.78,0.18-3.97,0.09-5.81 c-0.04-0.45-0.13-0.9-0.25-1.35c-0.54-1.9-1.86-3.43-3.52-4.48c-0.58-0.37-1.22-0.68-1.9-0.92c-4-1.45-9.29-0.66-12.13,2.41 c-1.15,1.25-1.89,2.9-2.04,5.1L89.39,27.22L89.39,27.22L89.39,27.22z M107.95,28.26c0.36,0.03,0.64,0.11,0.83,0.24 c0.11,0.08,0.2,0.17,0.25,0.28c0.06,0.13,0.09,0.31,0.09,0.49c-0.02,0.6-0.34,1.41-0.96,2.35l-0.01,0.02l0,0l-2.08,3.31 c-0.83,1.31-1.7,2.66-2.77,3.65c-1.02,0.93-2.26,1.57-3.9,1.57c-1.78,0-3.07-0.66-4.13-1.64c-1.11-1.04-1.98-2.47-2.85-3.89 l-2.33-3.85c-0.47-1.08-0.61-1.72-0.46-2.03c0.1-0.19,0.48-0.24,1.12-0.19c0.4,0.09,0.83,0.01,1.28-0.22l-1.17-3.51 c4.29-0.05,7.21-0.8,10.69-3.01c1.14-0.72,1.48-1.56,2.62-1.48c0.87,0.16,1.59,0.55,2.16,1.17c0.55,0.59,0.96,1.4,1.24,2.44 l-0.69,4.2C107.21,28.39,107.58,28.42,107.95,28.26L107.95,28.26L107.95,28.26z M90.46,56.05c-0.18,1.85-1.25,2.93-3.33,3.08H61.47 H35.38c-2.09-0.16-3.16-1.24-3.33-3.11l0.72-3.03c0.2-2.64,0.94-4.73,2.15-6.33c0.8-1.06,1.79-1.83,2.88-2.44 c3.47-1.93,11.57-2.5,14.72-5.33c2.85,8.4,14.76,8.67,17.43,0c3.15,2.83,11.26,3.4,14.72,5.33c1.09,0.61,2.09,1.39,2.88,2.44 C89.65,49.42,89.85,52.6,90.46,56.05L90.46,56.05z M16.76,42.57c2.2,6.45,11.4,6.71,13.47,0c0.49,0.44,1.17,0.81,1.97,1.13 c-1.79,3.78-2.04,8.82-2.65,12.95h-5.86H2.58c-1.62-0.12-2.44-0.95-2.58-2.4c0-2.94,0.23-5.21,4.45-7.56 C7.13,45.2,14.33,44.76,16.76,42.57L16.76,42.57L16.76,42.57z M33.49,26c0.5,0.15,0.88,0.44,1.1,0.89 c0.35,0.71,0.22,1.78-0.45,3.29l0,0c-0.01,0.03-0.02,0.05-0.04,0.09l-2.37,3.9c-0.92,1.51-1.85,3.02-3.1,4.2 c-1.3,1.23-2.92,2.04-5.12,2.03c-2.06,0-3.61-0.79-4.88-1.95c-1.22-1.12-2.15-2.54-3.02-3.95l-2.08-3.31 c-0.78-1.16-1.17-2.21-1.21-3.09c-0.01-0.43,0.05-0.81,0.22-1.14c0.16-0.36,0.42-0.66,0.77-0.89c0.17-0.11,0.36-0.21,0.57-0.28 c-0.13-1.78-0.18-3.97-0.09-5.81c0.04-0.45,0.13-0.9,0.25-1.35c0.54-1.9,1.86-3.43,3.52-4.48c0.58-0.37,1.22-0.68,1.9-0.92 c4-1.45,9.29-0.66,12.13,2.41c1.15,1.25,1.88,2.9,2.04,5.1L33.49,26L33.49,26L33.49,26z M14.93,27.05 c-0.36,0.03-0.64,0.11-0.83,0.24c-0.11,0.08-0.2,0.18-0.25,0.29c-0.07,0.13-0.09,0.31-0.09,0.49c0.02,0.6,0.34,1.41,0.96,2.35 l0.01,0.02l0,0l2.08,3.31c0.83,1.32,1.7,2.66,2.77,3.65c1.02,0.93,2.26,1.57,3.9,1.57c1.78,0,3.07-0.66,4.13-1.64 c1.11-1.04,1.98-2.47,2.85-3.89l2.33-3.85c0.47-1.07,0.61-1.72,0.46-2.03c-0.1-0.19-0.48-0.24-1.12-0.19 c-0.41,0.09-0.83,0.01-1.28-0.22l1.17-3.51c-4.29-0.05-7.21-0.8-10.69-3.01c-1.14-0.72-1.48-1.56-2.62-1.48 c-0.87,0.16-1.59,0.55-2.16,1.17c-0.55,0.59-0.96,1.4-1.24,2.44l0.69,4.2C15.67,27.18,15.3,27.2,14.93,27.05L14.93,27.05 L14.93,27.05z M50.04,18.79c-0.4,0.05-0.71,0.15-0.94,0.3c-0.14,0.1-0.26,0.23-0.32,0.37c-0.08,0.17-0.11,0.39-0.11,0.64 c0.02,0.79,0.44,1.83,1.26,3.02l0.02,0.02l0,0l2.69,4.29c1.07,1.71,2.2,3.45,3.58,4.72c1.32,1.21,2.93,2.03,5.04,2.04 c2.3,0.01,3.97-0.85,5.34-2.12c1.44-1.34,2.58-3.19,3.7-5.04l3.03-4.98c0.61-1.39,0.8-2.22,0.6-2.62 c-0.12-0.26-0.66-0.31-1.55-0.23c-0.07,0.01-0.13,0.01-0.2,0c-0.37,0-0.77-0.1-1.21-0.3l1.36-4.54c-5.55-0.07-9.35-1.04-13.83-3.91 C57,9.5,56.56,8.43,55.08,8.53c-1.11,0.22-2.05,0.71-2.8,1.51c-0.71,0.77-1.26,1.82-1.61,3.16l0.96,5.5 C51.07,18.99,50.54,19.01,50.04,18.79L50.04,18.79L50.04,18.79z"/></g></svg>